<svg width="18" height="18" viewBox="0 0 18 18" fill="none" xmlns="http://www.w3.org/2000/svg">
<path d="M17.0049 9.13672C17.0049 9.51255 16.8608 9.87585 16.5913 10.1389C16.3281 10.4083 15.9647 10.5586 15.5887 10.5586H9.92416V16.2211C9.92416 16.5969 9.77377 16.9602 9.50433 17.2233C9.24115 17.4864 8.88398 17.6367 8.50802 17.6367C8.13205 17.6367 7.76861 17.4864 7.50544 17.2233C7.23599 16.9602 7.08561 16.5969 7.08561 16.2211V10.5586H1.42103C1.04506 10.5586 0.681624 10.4083 0.418447 10.1389C0.15527 9.87585 0.00488281 9.51255 0.00488281 9.13672C0.00488281 8.76089 0.15527 8.40385 0.418447 8.13451C0.681624 7.87143 1.04506 7.7211 1.42103 7.7211H7.08561V2.05861C7.08561 1.68278 7.23599 1.31947 7.50544 1.05639C7.76861 0.78705 8.13205 0.636719 8.50802 0.636719C8.88398 0.636719 9.24115 0.78705 9.50433 1.05639C9.77377 1.31947 9.92416 1.68278 9.92416 2.05861V7.7211H15.5887C15.9647 7.7211 16.3281 7.87143 16.5913 8.13451C16.8608 8.40385 17.0049 8.76089 17.0049 9.13672Z" fill="#0F00FF"/>
</svg>
