<svg width="44" height="45" viewBox="0 0 44 45" fill="none" xmlns="http://www.w3.org/2000/svg">
<path d="M37.8125 5.11328H6.1875C5.42695 5.11328 4.8125 5.72773 4.8125 6.48828V38.1133C4.8125 38.8738 5.42695 39.4883 6.1875 39.4883H37.8125C38.573 39.4883 39.1875 38.8738 39.1875 38.1133V6.48828C39.1875 5.72773 38.573 5.11328 37.8125 5.11328ZM33.8422 15.1465H31.0965C28.9438 15.1465 28.527 16.1691 28.527 17.673V20.9859H33.666L32.9957 26.1723H28.527V39.4883H23.1688V26.1766H18.6871V20.9859H23.1688V17.1617C23.1688 12.723 25.8801 10.3039 29.8418 10.3039C31.741 10.3039 33.3695 10.4457 33.8465 10.5102V15.1465H33.8422Z" fill="#0F00FF"/>
</svg>
