<svg width="20" height="21" viewBox="0 0 20 21" fill="none" xmlns="http://www.w3.org/2000/svg">
<path d="M2.5 4.67581C2.33424 4.67581 2.17527 4.74166 2.05806 4.85887C1.94085 4.97608 1.875 5.13505 1.875 5.30081C1.875 5.46657 1.94085 5.62554 2.05806 5.74275C2.17527 5.85996 2.33424 5.92581 2.5 5.92581H3.8875L5.5275 12.4883C5.66687 13.0446 6.165 13.4258 6.73812 13.4258H14.5319C15.0962 13.4258 15.5756 13.0508 15.7238 12.5071L17.3438 6.55081H16.035L14.5312 12.1758H6.7375L5.09812 5.61331C5.03041 5.34408 4.8743 5.10536 4.6548 4.93538C4.4353 4.7654 4.16511 4.674 3.8875 4.67581H2.5ZM13.75 13.4258C12.7219 13.4258 11.875 14.2727 11.875 15.3008C11.875 16.3289 12.7219 17.1758 13.75 17.1758C14.7781 17.1758 15.625 16.3289 15.625 15.3008C15.625 14.2727 14.7781 13.4258 13.75 13.4258ZM8.125 13.4258C7.09688 13.4258 6.25 14.2727 6.25 15.3008C6.25 16.3289 7.09688 17.1758 8.125 17.1758C9.15312 17.1758 10 16.3289 10 15.3008C10 14.2727 9.15312 13.4258 8.125 13.4258ZM10 4.67581V7.80081H8.125L10.625 10.3008L13.125 7.80081H11.25V4.67581H10ZM8.125 14.6758C8.4775 14.6758 8.75 14.9483 8.75 15.3008C8.75 15.6533 8.4775 15.9258 8.125 15.9258C7.7725 15.9258 7.5 15.6533 7.5 15.3008C7.5 14.9483 7.7725 14.6758 8.125 14.6758ZM13.75 14.6758C14.1025 14.6758 14.375 14.9483 14.375 15.3008C14.375 15.6533 14.1025 15.9258 13.75 15.9258C13.3975 15.9258 13.125 15.6533 13.125 15.3008C13.125 14.9483 13.3975 14.6758 13.75 14.6758Z" fill="black"/>
</svg>
