<svg width="20" height="21" viewBox="0 0 20 21" fill="none" xmlns="http://www.w3.org/2000/svg">
<path d="M9.16634 14.4688H10.833V9.46875H9.16634V14.4688ZM9.99967 7.80208C10.2358 7.80208 10.4338 7.72208 10.5938 7.56208C10.7538 7.40208 10.8336 7.20431 10.833 6.96875C10.833 6.73264 10.753 6.53458 10.593 6.37458C10.433 6.21458 10.2352 6.13486 9.99967 6.13542C9.76356 6.13542 9.56551 6.21542 9.40551 6.37542C9.24551 6.53542 9.16579 6.73319 9.16634 6.96875C9.16634 7.20486 9.24634 7.40292 9.40634 7.56292C9.56634 7.72292 9.76412 7.80264 9.99967 7.80208ZM9.99967 18.6354C8.06912 18.1493 6.47523 17.0415 5.21801 15.3121C3.96079 13.5826 3.33245 11.6626 3.33301 9.55208V4.46875L9.99967 1.96875L16.6663 4.46875V9.55208C16.6663 11.6632 16.0377 13.5835 14.7805 15.3129C13.5233 17.0424 11.9297 18.1499 9.99967 18.6354Z" fill="black"/>
</svg>
