<svg width="20" height="21" viewBox="0 0 20 21" fill="none" xmlns="http://www.w3.org/2000/svg">
<path d="M5 14.4674C5 12.8008 8.33333 11.8841 10 11.8841C11.6667 11.8841 15 12.8008 15 14.4674V15.3008H5M12.5 7.80078C12.5 8.46382 12.2366 9.09971 11.7678 9.56855C11.2989 10.0374 10.663 10.3008 10 10.3008C9.33696 10.3008 8.70107 10.0374 8.23223 9.56855C7.76339 9.09971 7.5 8.46382 7.5 7.80078C7.5 7.13774 7.76339 6.50186 8.23223 6.03301C8.70107 5.56417 9.33696 5.30078 10 5.30078C10.663 5.30078 11.2989 5.56417 11.7678 6.03301C12.2366 6.50186 12.5 7.13774 12.5 7.80078ZM2.5 4.46745V16.1341C2.5 16.5761 2.67559 17.0001 2.98816 17.3126C3.30072 17.6252 3.72464 17.8008 4.16667 17.8008H15.8333C16.2754 17.8008 16.6993 17.6252 17.0118 17.3126C17.3244 17.0001 17.5 16.5761 17.5 16.1341V4.46745C17.5 4.02542 17.3244 3.6015 17.0118 3.28894C16.6993 2.97638 16.2754 2.80078 15.8333 2.80078H4.16667C3.72464 2.80078 3.30072 2.97638 2.98816 3.28894C2.67559 3.6015 2.5 4.02542 2.5 4.46745Z" fill="black"/>
</svg>
