<svg width="20" height="21" viewBox="0 0 20 21" fill="none" xmlns="http://www.w3.org/2000/svg">
<path d="M10.8337 7.80208H9.16699V6.13542H10.8337M10.8337 14.4688H9.16699V9.46875H10.8337M10.0003 1.96875C8.90598 1.96875 7.82234 2.1843 6.8113 2.60309C5.80025 3.02188 4.88159 3.63571 4.10777 4.40953C2.54497 5.97233 1.66699 8.09195 1.66699 10.3021C1.66699 12.5122 2.54497 14.6318 4.10777 16.1946C4.88159 16.9685 5.80025 17.5823 6.8113 18.0011C7.82234 18.4199 8.90598 18.6354 10.0003 18.6354C12.2105 18.6354 14.3301 17.7574 15.8929 16.1946C17.4557 14.6318 18.3337 12.5122 18.3337 10.3021C18.3337 9.20773 18.1181 8.1241 17.6993 7.11305C17.2805 6.10201 16.6667 5.18335 15.8929 4.40953C15.1191 3.63571 14.2004 3.02188 13.1894 2.60309C12.1783 2.1843 11.0947 1.96875 10.0003 1.96875Z" fill="black"/>
</svg>
