<svg width="44" height="45" viewBox="0 0 44 45" fill="none" xmlns="http://www.w3.org/2000/svg">
<path d="M34.8333 5.80078C35.8058 5.80078 36.7384 6.18709 37.4261 6.87472C38.1137 7.56236 38.5 8.49499 38.5 9.46745V35.1341C38.5 36.1066 38.1137 37.0392 37.4261 37.7268C36.7384 38.4145 35.8058 38.8008 34.8333 38.8008H9.16667C8.19421 38.8008 7.26157 38.4145 6.57394 37.7268C5.88631 37.0392 5.5 36.1066 5.5 35.1341V9.46745C5.5 8.49499 5.88631 7.56236 6.57394 6.87472C7.26157 6.18709 8.19421 5.80078 9.16667 5.80078H34.8333ZM33.9167 34.2174V24.5008C33.9167 22.9157 33.287 21.3955 32.1661 20.2746C31.0453 19.1538 29.5251 18.5241 27.94 18.5241C26.3817 18.5241 24.5667 19.4774 23.6867 20.9074V18.8724H18.5717V34.2174H23.6867V25.1791C23.6867 23.7674 24.8233 22.6124 26.235 22.6124C26.9157 22.6124 27.5686 22.8829 28.0499 23.3642C28.5313 23.8456 28.8017 24.4984 28.8017 25.1791V34.2174H33.9167ZM12.6133 15.9941C13.4302 15.9941 14.2136 15.6696 14.7912 15.092C15.3688 14.5144 15.6933 13.731 15.6933 12.9141C15.6933 11.2091 14.3183 9.81578 12.6133 9.81578C11.7916 9.81578 11.0035 10.1422 10.4225 10.7233C9.84143 11.3043 9.515 12.0924 9.515 12.9141C9.515 14.6191 10.9083 15.9941 12.6133 15.9941ZM15.1617 34.2174V18.8724H10.0833V34.2174H15.1617Z" fill="#372AFF"/>
</svg>
