<svg width="44" height="45" viewBox="0 0 44 45" fill="none" xmlns="http://www.w3.org/2000/svg">
<path d="M23.8851 3.97101C25.2229 3.96587 26.5608 3.97932 27.8982 4.01134L28.2539 4.02417C28.6646 4.03884 29.0697 4.05717 29.5592 4.07917C31.5099 4.17084 32.8409 4.47884 34.0087 4.93167C35.2187 5.39734 36.2381 6.02801 37.2574 7.04734C38.1894 7.96328 38.9108 9.07124 39.3712 10.2942C39.8241 11.462 40.1321 12.7948 40.2237 14.7455C40.2457 15.2332 40.2641 15.6402 40.2787 16.0508L40.2897 16.4065C40.3223 17.7434 40.3364 19.0806 40.3319 20.4178L40.3337 21.7855V24.1872C40.3383 25.525 40.3242 26.8629 40.2916 28.2003L40.2806 28.556C40.2659 28.9667 40.2476 29.3718 40.2256 29.8613C40.1339 31.812 39.8222 33.143 39.3712 34.3108C38.9123 35.5351 38.1908 36.6439 37.2574 37.5595C36.3407 38.4914 35.2321 39.2127 34.0087 39.6733C32.8409 40.1262 31.5099 40.4342 29.5592 40.5258C29.0697 40.5478 28.6646 40.5662 28.2539 40.5808L27.8982 40.5918C26.5608 40.6244 25.2229 40.6385 23.8851 40.634L22.5174 40.6358H20.1176C18.7797 40.6404 17.4419 40.6263 16.1044 40.5937L15.7487 40.5827C15.3135 40.5669 14.8784 40.5486 14.4434 40.5277C12.4927 40.436 11.1617 40.1243 9.99207 39.6733C8.76866 39.2138 7.66051 38.4924 6.74524 37.5595C5.81216 36.6434 5.09015 35.5347 4.62957 34.3108C4.17674 33.143 3.86874 31.812 3.77707 29.8613C3.75666 29.4263 3.73832 28.9912 3.72207 28.556L3.71291 28.2003C3.67911 26.8629 3.66383 25.525 3.66707 24.1872V20.4178C3.66196 19.0806 3.6754 17.7434 3.70741 16.4065L3.72024 16.0508C3.73491 15.6402 3.75324 15.2332 3.77524 14.7455C3.86691 12.793 4.17491 11.4638 4.62774 10.2942C5.08859 9.07064 5.81201 7.96299 6.74707 7.04917C7.66171 6.11555 8.76917 5.39289 9.99207 4.93167C11.1617 4.47884 12.4909 4.17084 14.4434 4.07917L15.7487 4.02417L16.1044 4.01501C17.4412 3.98122 18.7785 3.96594 20.1157 3.96917L23.8851 3.97101ZM22.0004 13.1377C20.7858 13.1205 19.58 13.3449 18.4529 13.7978C17.3258 14.2507 16.2999 14.9231 15.435 15.7759C14.57 16.6288 13.8831 17.645 13.4143 18.7656C12.9455 19.8862 12.7041 21.0887 12.7041 22.3034C12.7041 23.5181 12.9455 24.7207 13.4143 25.8413C13.8831 26.9619 14.57 27.9781 15.435 28.8309C16.2999 29.6837 17.3258 30.3561 18.4529 30.809C19.58 31.262 20.7858 31.4864 22.0004 31.4692C24.4316 31.4692 26.7631 30.5034 28.4822 28.7843C30.2013 27.0652 31.1671 24.7337 31.1671 22.3025C31.1671 19.8714 30.2013 17.5398 28.4822 15.8207C26.7631 14.1016 24.4316 13.1377 22.0004 13.1377ZM22.0004 16.8043C22.731 16.7909 23.457 16.9231 24.1359 17.1934C24.8148 17.4636 25.433 17.8665 25.9545 18.3783C26.476 18.8902 26.8902 19.5009 27.1731 20.1746C27.4559 20.8484 27.6016 21.5718 27.6017 22.3025C27.6019 23.0332 27.4564 23.7566 27.1738 24.4305C26.8912 25.1044 26.4771 25.7151 25.9558 26.2272C25.4345 26.7392 24.8164 27.1423 24.1376 27.4127C23.4588 27.6832 22.7328 27.8157 22.0022 27.8025C20.5436 27.8025 19.1446 27.223 18.1132 26.1916C17.0817 25.1601 16.5022 23.7612 16.5022 22.3025C16.5022 20.8438 17.0817 19.4449 18.1132 18.4134C19.1446 17.382 20.5436 16.8025 22.0022 16.8025L22.0004 16.8043ZM31.6254 10.3877C31.034 10.4113 30.4746 10.6629 30.0645 11.0898C29.6544 11.5166 29.4254 12.0856 29.4254 12.6775C29.4254 13.2694 29.6544 13.8384 30.0645 14.2652C30.4746 14.6921 31.034 14.9437 31.6254 14.9673C32.2332 14.9673 32.8161 14.7259 33.2459 14.2961C33.6756 13.8664 33.9171 13.2835 33.9171 12.6757C33.9171 12.0679 33.6756 11.485 33.2459 11.0552C32.8161 10.6254 32.2332 10.384 31.6254 10.384V10.3877Z" fill="#EB3B3B"/>
</svg>
