<svg width="40" height="41" viewBox="0 0 40 41" fill="none" xmlns="http://www.w3.org/2000/svg">
<g clip-path="url(#clip0_410_2200)">
<path d="M30.625 0.300781H9.375C4.19733 0.300781 0 4.49811 0 9.67578V30.9258C0 36.1035 4.19733 40.3008 9.375 40.3008H30.625C35.8027 40.3008 40 36.1035 40 30.9258V9.67578C40 4.49811 35.8027 0.300781 30.625 0.300781Z" fill="white"/>
<path d="M30.625 0.300781H9.375C4.19733 0.300781 0 4.49811 0 9.67578V30.9258C0 36.1035 4.19733 40.3008 9.375 40.3008H30.625C35.8027 40.3008 40 36.1035 40 30.9258V9.67578C40 4.49811 35.8027 0.300781 30.625 0.300781Z" fill="#1D9BF0"/>
<path d="M31.1831 14.5837C31.2003 14.8317 31.2003 15.0797 31.2003 15.33C31.2003 22.9545 25.3959 31.748 14.7823 31.748V31.7433C11.6469 31.7478 8.57641 30.8498 5.9375 29.1566C6.39344 29.2114 6.85156 29.2387 7.31094 29.2398C9.90963 29.2419 12.4336 28.3702 14.4772 26.765C13.2731 26.7422 12.1063 26.3438 11.1398 25.6253C10.1732 24.9069 9.45539 23.9044 9.08656 22.758C9.95106 22.9246 10.8423 22.8906 11.6916 22.6586C8.99969 22.1147 7.06297 19.7495 7.06297 17.0026V16.9295C7.86546 17.3765 8.76356 17.6242 9.68172 17.6517C7.14641 15.9572 6.36484 12.5842 7.89578 9.94702C9.34442 11.7297 11.1519 13.1877 13.2007 14.2262C15.2495 15.2648 17.4939 15.8608 19.7881 15.9755C19.5594 14.9908 19.5932 13.9634 19.8861 12.9959C20.179 12.0285 20.7208 11.1549 21.4573 10.4625C23.7814 8.27781 27.4366 8.38984 29.6213 10.7126C30.9134 10.4575 32.1526 9.9838 33.2855 9.31187C32.8547 10.6479 31.9533 11.782 30.7489 12.5031C31.8928 12.3684 33.0098 12.0622 34.0625 11.5948C33.2881 12.7545 32.3131 13.7666 31.1831 14.5837Z" fill="white"/>
</g>
<defs>
<clipPath id="clip0_410_2200">
<rect width="40" height="40" fill="white" transform="translate(0 0.300781)"/>
</clipPath>
</defs>
</svg>
